<?xml version="1.0" encoding="utf-8"?>
<!DOCTYPE svg PUBLIC "-//W3C//DTD SVG 1.1//EN" "http://www.w3.org/Graphics/SVG/1.1/DTD/svg11.dtd">
<!--by Dexterr-->
<svg id="SOCIAL-ICONS" version="1.1" xmlns="http://www.w3.org/2000/svg" xmlns:xlink="http://www.w3.org/1999/xlink" preserveAspectRatio="none" viewBox="0,0 480,480" width="480" height="480">
<symbol id="icon-wrp">
	<g id="sns-facebook">
		<path d="M34.735,16.248l-0.839,7.769h-6.475c0,9.851,0,21.983,0,21.983h-9.595c0,0,0-12.012,0-21.983h-4.562v-7.769h4.562v-5.025
			C17.827,7.624,19.623,2,27.512,2l7.104,0.027v7.54c0,0-4.319,0-5.161,0c-0.839,0-2.033,0.4-2.033,2.115v4.567L34.735,16.248
			L34.735,16.248z"/>
	</g>
	<g id="sns-twitter">
		<path d="M40.7,14.791c0.019,0.397,0.028,0.794,0.028,1.186c0,12.26-8.672,26.398-24.519,26.398c-4.877,0-9.398-1.539-13.21-4.185
			c0.672,0.089,1.361,0.13,2.058,0.13c4.036,0,7.751-1.469,10.701-3.968c-3.769-0.057-6.955-2.742-8.047-6.44
			c0.533,0.125,1.059,0.165,1.612,0.165c0.791,0,1.554-0.097,2.276-0.309c-3.942-0.867-6.911-4.61-6.911-9.097
			c0-0.041,0-0.088,0-0.127c1.16,0.701,2.488,1.097,3.903,1.154c-2.316-1.639-3.836-4.496-3.836-7.707
			c0-1.707,0.425-3.298,1.163-4.664c4.252,5.602,10.61,9.309,17.759,9.679c-0.143-0.671-0.219-1.384-0.219-2.104
			c0-5.13,3.857-9.279,8.616-9.279c2.474,0,4.72,1.13,6.286,2.94c1.969-0.441,3.815-1.199,5.484-2.255
			c-0.648,2.167-2.02,3.976-3.802,5.124c1.75-0.225,3.402-0.711,4.956-1.461C43.845,11.829,42.382,13.467,40.7,14.791z"/>
	</g>
	<g id="sns-google">
		<path d="M43.604,20.25c0.256,1.337,0.395,2.738,0.395,4.2c0,11.425-7.805,19.55-19.591,19.55C13.132,44,3.999,35.049,3.999,24
			c0-11.049,9.133-20,20.408-20c5.51,0,10.115,1.987,13.647,5.212l-5.753,5.638v-0.013c-2.142-2-4.857-3.024-7.894-3.024
			c-6.734,0-12.207,5.575-12.207,12.175c0,6.599,5.473,12.187,12.207,12.187c6.11,0,10.269-3.425,11.125-8.125H24.408v-7.8H43.604
			L43.604,20.25z"/>
	</g>
	<g id="sns-vk">
		<path d="M23.528,36.445h2.63c0,0,0.794-0.087,1.199-0.524c0.375-0.4,0.362-1.154,0.362-1.154s-0.052-3.529,1.586-4.048
			c1.615-0.513,3.688,3.409,5.886,4.918c1.662,1.142,2.925,0.892,2.925,0.892l5.876-0.083c0,0,3.073-0.189,1.615-2.606
			c-0.118-0.197-0.849-1.787-4.368-5.054c-3.686-3.421-3.191-2.867,1.247-8.782c2.703-3.603,3.783-5.802,3.445-6.744
			c-0.322-0.897-2.31-0.661-2.31-0.661l-6.616,0.042c0,0-0.49-0.067-0.854,0.15c-0.354,0.213-0.583,0.71-0.583,0.71
			s-1.048,2.788-2.444,5.158c-2.945,5.002-4.123,5.267-4.605,4.956c-1.12-0.724-0.84-2.908-0.84-4.46c0-4.848,0.735-6.87-1.433-7.393
			c-0.719-0.173-1.249-0.289-3.088-0.307c-2.36-0.024-4.359,0.007-5.49,0.561c-0.752,0.37-1.333,1.19-0.979,1.238
			c0.438,0.058,1.427,0.267,1.953,0.981c0.678,0.922,0.654,2.994,0.654,2.994s0.39,5.707-0.91,6.415
			c-0.892,0.487-2.115-0.506-4.742-5.044c-1.345-2.325-2.361-4.895-2.361-4.895s-0.196-0.48-0.545-0.737
			c-0.424-0.312-1.017-0.41-1.017-0.41l-6.287,0.041c0,0-0.944,0.026-1.29,0.437c-0.309,0.365-0.025,1.12-0.025,1.12
			s4.922,11.515,10.495,17.318C17.726,36.796,23.528,36.445,23.528,36.445L23.528,36.445L23.528,36.445z"/>
	</g>
	<g id="sns-qq">
		<path d="M42.524,26.247c1.571,3.695,1.825,7.224,0.564,7.88c-0.868,0.455-2.231-0.577-3.507-2.476
			c-0.506,2.069-1.756,3.938-3.542,5.442c1.873,0.69,3.097,1.818,3.097,3.099c0,2.104-3.31,3.807-7.395,3.807
			c-3.686,0-6.735-1.385-7.3-3.202c-0.153-0.001-0.735-0.001-0.881,0C22.995,42.615,19.942,44,16.259,44
			c-4.086,0-7.395-1.705-7.395-3.807c0-1.279,1.22-2.408,3.097-3.1c-1.784-1.505-3.039-3.373-3.542-5.442
			c-1.274,1.899-2.634,2.932-3.504,2.477c-1.263-0.656-1.013-4.185,0.562-7.881c1.233-2.903,2.909-5.044,4.188-5.517
			c-0.02-0.184-0.026-0.371-0.026-0.559c0-1.122,0.311-2.159,0.845-3.003c-0.009-0.066-0.009-0.132-0.009-0.199
			c0-0.516,0.124-1.001,0.333-1.418C11.128,7.999,16.043,2,24,2c7.96,0,12.878,5.999,13.199,13.55c0.213,0.42,0.335,0.903,0.335,1.418
			c0,0.066-0.005,0.133-0.008,0.199c0.528,0.844,0.84,1.88,0.84,3.003c0,0.188-0.007,0.375-0.023,0.559
			C39.613,21.203,41.294,23.344,42.524,26.247z"/>
	</g>
	<g id="sns-wechat">
		<path d="M40.063,38.114l0.931,3.769l-4.327-2.097c-1.391,0.453-2.894,0.705-4.464,0.705c-7.066,0-12.797-5.036-12.797-11.247
			c0-6.21,5.73-11.246,12.797-11.246S45,23.034,45,29.243C45,32.85,43.066,36.058,40.063,38.114z M29.66,25.383
			c0-1.033-0.809-1.868-1.805-1.868s-1.805,0.835-1.805,1.868c0,1.031,0.809,1.866,1.805,1.866S29.66,26.414,29.66,25.383z
			 M38.19,25.383c0-1.033-0.808-1.868-1.804-1.868c-0.997,0-1.805,0.835-1.805,1.868c0,1.031,0.808,1.866,1.805,1.866
			C37.383,27.249,38.19,26.414,38.19,25.383z M18.258,29.209c0,1.172,0.189,2.303,0.535,3.378c-0.241,0.01-0.481,0.016-0.724,0.016
			c-1.849,0-3.621-0.294-5.258-0.829l-5.095,2.47l1.096-4.437C5.277,27.384,3,23.606,3,19.359C3,12.045,9.747,6.116,18.069,6.116
			c7.335,0,13.442,4.605,14.79,10.705c-0.164-0.005-0.327-0.011-0.493-0.011C24.574,16.81,18.258,22.36,18.258,29.209z M21.064,14.812
			c0,1.214,0.952,2.199,2.125,2.199c1.175,0,2.126-0.984,2.126-2.199c0-1.215-0.951-2.199-2.126-2.199
			C22.016,12.613,21.064,13.597,21.064,14.812z M15.269,14.812c0-1.215-0.952-2.198-2.125-2.198s-2.126,0.984-2.126,2.198
			c0,1.214,0.952,2.199,2.126,2.199S15.269,16.026,15.269,14.812z"/>
	</g>
	<g id="sns-youtube">
		<path d="M45.561,15.203c0,0-0.43-3.032-1.748-4.367c-1.674-1.753-3.55-1.762-4.41-1.864c-6.154-0.445-15.393-0.445-15.393-0.445
			h-0.02c0,0-9.237,0-15.394,0.445c-0.86,0.102-2.735,0.11-4.408,1.864c-1.32,1.335-1.75,4.367-1.75,4.367S2,18.763,2,22.325v3.338
			c0,3.56,0.439,7.121,0.439,7.121s0.43,3.03,1.749,4.366c1.674,1.754,3.873,1.698,4.851,1.883C12.56,39.37,24,39.475,24,39.475
			s9.245-0.013,15.403-0.458c0.86-0.104,2.735-0.111,4.409-1.865c1.319-1.337,1.75-4.366,1.75-4.366S46,29.224,46,25.663v-3.339
			C46,18.763,45.561,15.203,45.561,15.203 M18.901,30.286l-0.001-13.52L31.9,23.549L18.901,30.286z"/>
	</g>
	<g id="sns-pinterest">
		<path d="M25.028,2.001c-11.967,0-18.006,8.61-18.006,15.791c0,4.345,1.642,8.212,5.162,9.657
			c0.576,0.236,1.094,0.008,1.261-0.634c0.118-0.443,0.392-1.563,0.514-2.025c0.169-0.636,0.102-0.859-0.361-1.413
			c-1.015-1.198-1.664-2.752-1.664-4.955c0-6.389,4.763-12.109,12.404-12.109c6.765,0,10.482,4.149,10.482,9.689
			c0,7.286-3.215,13.438-7.987,13.438c-2.636,0-4.607-2.186-3.977-4.868c0.759-3.204,2.225-6.66,2.225-8.97
			c0-2.07-1.106-3.794-3.398-3.794c-2.694,0-4.858,2.798-4.858,6.542c0,2.385,0.805,4.001,0.805,4.001s-2.758,11.72-3.241,13.771
			c-0.963,4.088,0.092,9.878,0.092,9.878s3.889-4.426,4.98-8.397c0.309-1.125,1.772-6.947,1.772-6.947
			c0.875,1.676,3.431,3.149,6.154,3.149c8.097,0,13.592-7.406,13.592-17.324C40.979,8.986,34.649,2.001,25.028,2.001z"/>
	</g>
	<g id="sns-googleplus">
		<path d="M16.734,38.501C8.609,38.501,2,31.997,2,24c0-7.996,6.609-14.5,14.734-14.5c3.553,0,6.986,1.263,9.665,3.556l-3.747,4.237
			c-1.64-1.404-3.741-2.177-5.918-2.177c-4.977,0-9.027,3.985-9.027,8.883c0,4.897,4.05,8.881,9.027,8.881
			c4.211,0,6.968-2.021,7.863-5.649h-7.794v-5.615h13.819v2.809C30.622,32.844,25.04,38.501,16.734,38.501z"/>
		<polygon points="46,21.62 41.729,21.62 41.729,17.339 38.311,17.339 38.311,21.62 34.039,21.62 34.039,25.043 38.311,25.043 
			38.311,29.323 41.729,29.323 41.729,25.043 46,25.043 "/>
	</g>
	<g id="sns-instagram">
		<rect x="7" y="7" rx="9" ry="9" width="34" height="34" fill="none" stroke-width="3.6"/>
		<circle cx="24" cy="24" r="8" fill="none" stroke-width="3.6"/>
		<circle cx="34" cy="14" r="2"/>
	</g>
	<g id="sns-line">
		<path d="M39.499,9.233c-3.978-3.228-9.46-5.228-15.498-5.228s-11.521,2-15.5,5.228C4.487,12.491,2,16.999,2,21.979
			c0,4.452,1.963,8.538,5.253,11.688c3.271,3.133,7.859,5.336,13.126,6.041c0.35,0.075,0.765,0.194,1.078,0.368
			c0.167,0.095,0.296,0.195,0.338,0.3h0c0.074,0.185,0.098,0.449,0.097,0.724c-0.001,0.301-0.033,0.614-0.066,0.866l-0.303,1.822
			h-0.001l-0.008,0.044c-0.058,0.327-0.157,0.885,0.052,1.382c0.292,0.696,1.006,1.125,2.681,0.42
			c1.391-0.587,5.574-3.091,9.666-6.115c2.763-2.042,5.499-4.33,7.34-6.446c0.285-0.312,0.559-0.626,0.817-0.94l0.109-0.125h-0.007
			c1.141-1.403,2.02-2.822,2.646-4.282C45.612,25.879,46,23.978,46,21.979C46,16.999,43.514,12.491,39.499,9.233L39.499,9.233z
			 M22.33,16.766c0.139-0.046,0.284-0.07,0.43-0.07c0.427,0,0.835,0.202,1.088,0.546l3.918,5.337v-4.523c0-0.75,0.611-1.36,1.36-1.36
			s1.359,0.61,1.359,1.36v8.488c0,0.588-0.374,1.105-0.932,1.29c-0.139,0.047-0.283,0.071-0.43,0.071
			c-0.426,0-0.834-0.203-1.088-0.547l-3.918-5.335v4.521c0,0.751-0.608,1.361-1.359,1.361c-0.75,0-1.36-0.611-1.36-1.361v-8.488
			C21.399,17.47,21.773,16.95,22.33,16.766L22.33,16.766z M31.51,26.544v-8.488c0-0.749,0.609-1.36,1.358-1.36h4.247
			c0.749,0,1.358,0.611,1.358,1.36s-0.609,1.36-1.358,1.36h-2.886v1.525h2.886c0.749,0,1.358,0.61,1.358,1.359
			c0,0.749-0.61,1.359-1.358,1.359h-2.886v1.525h2.886c0.748,0,1.358,0.61,1.358,1.358c0,0.75-0.609,1.361-1.358,1.361h-4.247
			C32.118,27.905,31.51,27.294,31.51,26.544L31.51,26.544z M17.549,26.544v-8.488c0-0.75,0.61-1.36,1.359-1.36s1.358,0.611,1.358,1.36
			v8.488c0,0.75-0.608,1.361-1.358,1.361S17.549,27.294,17.549,26.544z M12.752,25.186h2.885c0.75,0,1.36,0.607,1.36,1.358
			s-0.608,1.361-1.36,1.361h-4.244c-0.75,0-1.358-0.611-1.358-1.361v-8.488c0-0.749,0.609-1.36,1.358-1.36
			c0.75,0,1.359,0.61,1.359,1.36V25.186L12.752,25.186z"/>
	</g>
	<g id="sns-whatsapp">
		<path d="M45,23.459c0,11.299-9.231,20.458-20.618,20.458c-3.615,0-7.011-0.924-9.967-2.545L3,45l3.721-10.977
			c-1.877-3.084-2.958-6.699-2.958-10.564C3.763,12.16,12.994,3,24.381,3S45,12.16,45,23.459z M24.382,6.258
			c-9.56,0-17.335,7.717-17.335,17.201c0,3.763,1.227,7.25,3.302,10.085l-2.165,6.387l6.661-2.117
			c2.738,1.797,6.016,2.846,9.537,2.846c9.558,0,17.334-7.716,17.334-17.201C41.716,13.975,33.94,6.258,24.382,6.258L24.382,6.258z
			 M34.793,28.171c-0.127-0.209-0.464-0.335-0.968-0.585c-0.506-0.251-2.992-1.464-3.455-1.631c-0.463-0.168-0.801-0.251-1.138,0.25
			c-0.336,0.503-1.305,1.631-1.6,1.966s-0.59,0.377-1.095,0.126s-2.134-0.779-4.065-2.488c-1.502-1.33-2.517-2.971-2.812-3.473
			c-0.294-0.501-0.031-0.773,0.222-1.022c0.228-0.226,0.506-0.586,0.759-0.878c0.253-0.293,0.336-0.502,0.505-0.836
			c0.169-0.335,0.083-0.627-0.042-0.879c-0.126-0.25-1.137-2.718-1.559-3.722c-0.421-1.004-0.841-0.836-1.137-0.836
			c-0.295,0-0.632-0.042-0.969-0.042c-0.337,0-0.885,0.126-1.348,0.627c-0.463,0.502-1.768,1.715-1.768,4.183s1.81,4.852,2.063,5.186
			c0.252,0.334,3.496,5.562,8.633,7.571c5.14,2.007,5.14,1.338,6.065,1.253c0.926-0.083,2.99-1.212,3.411-2.384
			C34.919,29.384,34.919,28.38,34.793,28.171L34.793,28.171z"/>
	</g>
	<g id="sns-steam">
		<path d="M45.386,15.474c-0.408-0.925-0.961-1.739-1.657-2.429c-0.694-0.696-1.502-1.248-2.428-1.657
			c-0.926-0.409-1.923-0.614-2.992-0.614c-1.032,0-2.015,0.195-2.939,0.589c-0.926,0.394-1.729,0.925-2.404,1.601
			c-0.674,0.674-1.221,1.478-1.631,2.403c-0.409,0.925-0.635,1.907-0.669,2.94l-4.971,7h-0.051c-1.069,0-2.082,0.286-3.048,0.854
			l-9.02-5.4c-0.108-1.283-0.599-2.414-1.468-3.39c-0.869-0.977-1.984-1.596-3.339-1.841c-0.818-0.108-1.601-0.072-2.352,0.107
			s-1.427,0.491-2.03,0.936c-0.604,0.445-1.115,0.986-1.524,1.631c-0.409,0.64-0.67,1.355-0.772,2.138
			c-0.143,0.782-0.117,1.55,0.083,2.296c0.194,0.747,0.506,1.427,0.936,2.03c0.429,0.604,0.961,1.114,1.601,1.524
			c0.639,0.408,1.354,0.684,2.137,0.828c0.567,0.106,1.12,0.117,1.656,0.024c0.532-0.086,1.048-0.225,1.549-0.398l9.721,5.45
			c0.179,1.463,0.818,2.681,1.923,3.662c1.104,0.982,2.424,1.467,3.953,1.467c0.817,0,1.585-0.158,2.297-0.48
			c0.709-0.322,1.334-0.746,1.87-1.282c0.532-0.532,0.961-1.156,1.283-1.872c0.323-0.716,0.48-1.477,0.48-2.296l6.68-5.19h0.05
			c1.069,0,2.066-0.194,2.992-0.589c0.926-0.394,1.738-0.935,2.428-1.63c0.696-0.695,1.249-1.503,1.657-2.429
			C45.795,20.531,46,19.534,46,18.465C46,17.396,45.795,16.399,45.386,15.474z M9.301,18.936c-0.501-0.322-1.033-0.48-1.601-0.48
			c-0.783,0-1.453,0.266-2.004,0.803c-0.552,0.542-0.829,1.201-0.829,1.984c0,0.603,0.159,1.14,0.481,1.601
			c0.322,0.465,0.731,0.803,1.227,1.017l2.669,1.442c-0.5,0.214-1.017,0.322-1.549,0.322c-1.211,0-2.244-0.43-3.099-1.284
			c-0.854-0.854-1.283-1.887-1.283-3.099c0-1.212,0.43-2.234,1.283-3.073c0.854-0.838,1.887-1.258,3.099-1.258
			c1.033,0,1.949,0.327,2.751,0.987c0.803,0.659,1.309,1.503,1.524,2.536L9.301,18.936z M28.721,34.307
			c-0.838,0.838-1.859,1.257-3.072,1.257c-1.069,0-2.004-0.327-2.807-0.986s-1.289-1.503-1.468-2.537l2.669,1.499
			c0.43,0.322,0.961,0.48,1.601,0.48c0.782,0,1.442-0.266,1.979-0.802c0.53-0.532,0.803-1.191,0.803-1.979
			c0-0.604-0.159-1.14-0.48-1.601c-0.322-0.46-0.732-0.804-1.228-1.013l-2.619-1.441c0.46-0.225,0.977-0.332,1.549-0.332
			c1.213,0,2.234,0.429,3.072,1.284c0.839,0.853,1.259,1.886,1.259,3.098S29.56,33.469,28.721,34.307z M42.021,22.146
			c-1.012,0.997-2.25,1.499-3.713,1.499c-0.709,0-1.38-0.133-2.004-0.409c-0.623-0.266-1.175-0.629-1.655-1.094
			c-0.482-0.465-0.856-1.018-1.121-1.657c-0.266-0.639-0.398-1.319-0.398-2.029c0-0.711,0.133-1.391,0.398-2.03
			c0.265-0.64,0.639-1.202,1.121-1.682c0.48-0.481,1.032-0.854,1.655-1.12c0.624-0.266,1.295-0.399,2.004-0.399
			c1.459,0,2.695,0.506,3.713,1.524c1.018,1.012,1.523,2.25,1.523,3.712S43.034,21.149,42.021,22.146z
			M38.309,15.044c-0.925,0-1.718,0.338-2.377,1.018c-0.659,0.675-0.987,1.478-0.987,2.403c0,0.926,0.328,1.718,0.987,2.378
			c0.659,0.66,1.452,0.987,2.377,0.987c0.926,0,1.729-0.327,2.403-0.987c0.676-0.66,1.014-1.452,1.014-2.378
			c0-0.925-0.338-1.728-1.014-2.403C40.038,15.382,39.234,15.044,38.309,15.044z"/>
	</g>
	<g id="sns-hangouts">
		<path d="M24.017,2c-0.98,0-1.962,0.045-2.662,0.142C12.945,3.29,6.231,9.822,4.96,18.093
			C4.293,22.425,5.23,27.01,7.543,30.722c1.496,2.401,3.644,4.581,5.984,6.07c2.858,1.819,5.924,2.802,9.502,3.048l0.939,0.065v2.989
			c0,1.645,0.028,3.017,0.062,3.052c0.126,0.123,0.338,0.055,1.309-0.422c3.843-1.884,7.335-4.363,10.229-7.26
			c4.308-4.31,6.744-9.057,7.563-14.735c0.176-1.217,0.149-4.2-0.049-5.404C41.71,9.722,35.114,3.294,26.679,2.142
			C25.979,2.045,24.997,2,24.017,2z M14.887,15.38h6.275c0.625,0,1.128,0.492,1.128,1.104v7.148c0,0.084,0.002,0.142-0.012,0.224
			c-0.061,1.154-0.212,1.584-0.562,2.297c-0.803,1.635-2.447,2.834-4.258,3.107c-0.328,0.05-0.434,0.024-0.602-0.139
			c-0.182-0.178-0.204-0.308-0.204-1.232c0-1.175,0.01-1.188,0.911-1.475c0.472-0.151,1.029-0.491,1.284-0.787
			c0.282-0.324,0.595-1.105,0.596-1.487v-0.4c-1.492,0.012-3.048-0.013-4.556,0c-0.625,0-1.127-0.496-1.127-1.107v-6.15
			C13.759,15.873,14.262,15.38,14.887,15.38L14.887,15.38z M26.84,15.38h6.276c0.624,0,1.127,0.492,1.127,1.104v7.148
			c0,0.084,0.003,0.142-0.012,0.224c-0.061,1.154-0.212,1.584-0.562,2.297c-0.803,1.635-2.446,2.834-4.259,3.107
			c-0.326,0.05-0.433,0.024-0.601-0.139c-0.183-0.178-0.204-0.308-0.204-1.232c0-1.175,0.01-1.188,0.911-1.475
			c0.473-0.151,1.029-0.491,1.283-0.787c0.283-0.324,0.596-1.105,0.597-1.487v-0.4c-1.492,0.012-3.049-0.013-4.557,0
			c-0.624,0-1.127-0.496-1.127-1.107v-6.15C25.713,15.873,26.216,15.38,26.84,15.38L26.84,15.38z"/>
	</g>
	<g id="sns-paypal">
		<path d="M41.924,10.651c1.707,3.056,1.144,6.655,0.473,8.784c-3.64,11.594-20.056,10.964-22.431,10.964
			c-2.373,0-2.924,2.157-2.924,2.157l-1.774,7.549c-0.482,2.647-2.946,2.518-2.946,2.518s-3.201,0-5.343,0
			c-0.134,0-0.26-0.01-0.375-0.024c-0.026,0.485,0.043,1.9,1.824,1.9c2.14,0,5.341,0,5.341,0s2.464,0.134,2.948-2.515l1.773-7.549
			c0,0,0.554-2.158,2.926-2.158c2.37,0,18.792,0.632,22.431-10.962C44.656,18.724,45.316,13.963,41.924,10.651z
			M13.618,38.46l1.775-7.551c0,0,0.55-2.155,2.926-2.155c2.37,0,18.789,0.628,22.426-10.963
			c1.334-4.238,2.257-14.29-14.321-14.29H14.451c0,0-2.49-0.113-3.104,2.468L3.521,38.911c0,0-0.334,2.064,1.806,2.064
			c2.143,0,5.345,0,5.345,0S13.136,41.108,13.618,38.46z M18.131,19.299l1.591-6.697c0,0,0.506-1.819,2.141-2.088
			c1.635-0.272,4.419,0.046,5.139,0.18c4.648,0.852,3.659,5.144,3.659,5.144c-0.922,6.627-11.493,5.705-11.493,5.705
			C17.51,20.96,18.131,19.299,18.131,19.299z"/>
	</g>
	<g id="sns-wordpress">
		<path d="M6.258,14.268C9.594,8.06,16.285,4,23.999,4c4.995,0,9.557,2.123,13.062,5.12
			c-1.002-0.193-2.096,0.024-3.195,0.653c-2.578,1.475-3.421,5.649-0.079,7.747c2.088,1.301,2.83,4.56,2.76,6.551
			c-0.068,1.993-4.853,11.147-4.853,11.147l-4.657-15.957c0,0-0.161-1.119-0.161-1.442c0-0.407,0.136-0.905,0.389-1.19
			c0.172-0.189,0.437-0.587,0.751-0.587h2.206v-1.774h-12v1.774h0.372c0.393,0,0.777,0.528,1.148,0.906
			c0.438,0.452,0.99,2.15,1.659,3.912l1.744,5.735l-3.761,8.67l-4.126-17.329c0,0,0.123-1.188,0.371-1.39
			c0.163-0.138,0.413-0.504,0.702-0.504h0.113v-1.774H6.258L6.258,14.268z M8.611,17.279c0,0-0.971-1.237-2-1.237H5.565
			C4.556,18.259,4,21.238,4,23.967C4,32.178,9.046,39.22,16.234,42.22L8.611,17.279L8.611,17.279z M41.212,14.11
			c0.379,1.799,0.301,3.983-0.44,6.383c-1.934,6.246-6.722,17.486-8.573,21.766C39.153,39.161,44,32.241,44,24.197
			C44,20.513,42.979,17.064,41.212,14.11z M24.403,30.979l-5.113,12.463C20.8,43.803,22.376,44,23.999,44
			c1.682,0,3.312-0.208,4.869-0.595L24.403,30.979L24.403,30.979z"/>
	</g>
	<g id="sns-tumblr">
		<path d="M34.528,37.146c-0.818,0.391-2.383,0.729-3.55,0.76c-3.522,0.093-4.206-2.476-4.234-4.338V19.87h8.836
			v-6.662h-8.806V2c0,0-6.34,0-6.443,0c-0.106,0-0.292,0.092-0.318,0.328c-0.376,3.431-1.981,9.452-8.657,11.859v5.683h4.454v14.375
			c0,4.924,3.631,11.917,13.216,11.752c3.234-0.056,6.826-1.41,7.619-2.579L34.528,37.146"/>
	</g>
	<g id="sns-blackberry">
		<path d="M12.299,16.43c2.195,0,3.975-1.4,3.975-3.595c0-2.195-1.779-3.974-3.975-3.974H5.483L3.989,16.43H12.299z
			M28.119,16.43c2.195,0,3.975-1.4,3.975-3.595c0-2.195-1.779-3.974-3.975-3.974h-6.756l-1.494,7.569H28.119z
			M10.31,27.785c2.194,0,3.974-1.4,3.974-3.596s-1.779-3.974-3.974-3.974H3.494L2,27.785H10.31z
			M26.13,27.785c2.194,0,3.975-1.4,3.975-3.596s-1.78-3.974-3.975-3.974h-6.756l-1.494,7.57H26.13z
			M24.162,39.14c2.195,0,3.974-1.401,3.974-3.597c0-2.193-1.778-3.974-3.974-3.974h-6.756l-1.495,7.57H24.162z
			M42.026,24C44.222,24,46,22.6,46,20.404c0-2.195-1.778-3.974-3.974-3.974H35.27L33.775,24H42.026z
			M40.037,35.354c2.194,0,3.974-1.401,3.974-3.596s-1.779-3.974-3.974-3.974H33.28l-1.494,7.569H40.037z"/>
	</g>
	<g id="sns-skype">
		<path d="M41.659,28.036c0.267-1.235,0.414-2.52,0.414-3.836c0-9.871-8.003-17.871-17.874-17.871
			c-1.042,0-2.065,0.09-3.056,0.259C19.543,5.586,17.654,5,15.627,5C9.905,5,5.263,9.64,5.263,15.361c0,1.916,0.522,3.704,1.427,5.244
			c-0.237,1.16-0.362,2.363-0.362,3.594c0,9.869,8,17.87,17.871,17.87c1.117,0,2.211-0.105,3.274-0.299
			C28.931,42.554,30.601,43,32.372,43c5.723,0,10.365-4.641,10.365-10.363C42.737,30.986,42.346,29.423,41.659,28.036L41.659,28.036z
			 M33.364,32.744c-0.826,1.168-2.047,2.097-3.632,2.755c-1.566,0.65-3.447,0.98-5.582,0.98c-2.567,0-4.719-0.453-6.399-1.342
			c-1.199-0.65-2.19-1.526-2.942-2.612c-0.76-1.094-1.144-2.18-1.144-3.23c0-0.653,0.254-1.218,0.747-1.686
			c0.489-0.46,1.119-0.695,1.865-0.695c0.615,0,1.145,0.186,1.576,0.548c0.412,0.352,0.761,0.865,1.048,1.532
			c0.319,0.724,0.661,1.339,1.025,1.82c0.352,0.464,0.855,0.852,1.502,1.158c0.645,0.308,1.52,0.463,2.595,0.463
			c1.48,0,2.688-0.318,3.599-0.938c0.891-0.607,1.32-1.337,1.32-2.23c0-0.705-0.221-1.26-0.689-1.694
			c-0.482-0.454-1.127-0.809-1.909-1.053c-0.809-0.255-1.915-0.526-3.277-0.814c-1.855-0.393-3.432-0.865-4.685-1.399
			c-1.279-0.546-2.312-1.3-3.068-2.247c-0.768-0.961-1.155-2.164-1.155-3.581c0-1.351,0.408-2.565,1.213-3.618
			c0.799-1.042,1.967-1.854,3.467-2.406c1.487-0.55,3.25-0.83,5.245-0.83c1.598,0,2.998,0.185,4.169,0.552
			c1.18,0.368,2.174,0.862,2.953,1.473c0.785,0.614,1.372,1.271,1.738,1.952c0.372,0.693,0.556,1.375,0.556,2.04
			c0,0.638-0.245,1.219-0.733,1.724c-0.487,0.509-1.106,0.771-1.833,0.771c-0.66,0-1.18-0.162-1.538-0.48
			c-0.336-0.296-0.687-0.759-1.069-1.419c-0.443-0.845-0.982-1.51-1.602-1.984c-0.602-0.458-1.604-0.69-2.982-0.69
			c-1.282,0-2.322,0.258-3.098,0.766c-0.746,0.487-1.106,1.05-1.106,1.713c0,0.406,0.114,0.75,0.356,1.041
			c0.252,0.31,0.612,0.581,1.064,0.809c0.472,0.238,0.954,0.424,1.438,0.557c0.496,0.137,1.331,0.34,2.47,0.607
			c1.448,0.309,2.777,0.658,3.952,1.032c1.189,0.382,2.22,0.851,3.057,1.396c0.856,0.559,1.535,1.276,2.018,2.126
			c0.479,0.859,0.724,1.919,0.724,3.149C34.614,30.227,34.194,31.567,33.364,32.744L33.364,32.744z"/>
	</g>
	<g id="sns-baidu">
		<path d="M14.439,17.302c0.244,3.484-1.646,6.456-4.22,6.637c-2.574,0.18-4.859-2.498-5.104-5.984
			c-0.243-3.485,1.646-6.457,4.221-6.638C11.911,11.137,14.197,13.815,14.439,17.302L14.439,17.302z M32.174,2.853
			c-2.503-0.637-5.228,1.59-6.088,4.976c-0.863,3.386,0.465,6.647,2.967,7.286c2.5,0.637,5.227-1.59,6.088-4.976
			C36.262,5.733,32.773,3.007,32.174,2.853z M38.038,14.265c-2.631,0.039-4.721,2.542-4.662,6.419
			c0.059,3.875,2.234,5.643,4.867,5.604c2.631-0.04,4.719-1.87,4.661-5.748C42.828,15.496,38.669,14.256,38.038,14.265L38.038,14.265z
			 M18.974,2c-2.503,0-4.533,2.806-4.533,6.267c0,3.46,2.03,6.265,4.533,6.265c2.504,0,4.534-2.805,4.534-6.265
			C23.508,4.806,21.478,2,18.974,2z M18.394,21.461c-1.447,2.077-3.086,4.104-6.269,6.761c-3.184,2.658-4.534,4.492-4.534,7.194
			c0,2.705,1.543,7.198,5.931,7.198c4.389,0,6.511-0.968,9.985-0.968c3.473,0,5.787,1.353,10.177,1.353
			c4.389,0,6.221-4.152,6.221-6.858c0-2.704-0.762-4.234-4.277-7.32c-2.253-1.98-4.162-3.594-7.154-7.746
			c-1.477-2.053-3.183-2.317-4.966-2.317C21.722,18.758,19.841,19.385,18.394,21.461L18.394,21.461z"/>
	</g>
</symbol>
<!--row 1-->
<g fill="#000">
	<use xlink:href="#sns-facebook" x="0" y="0"/>
	<use xlink:href="#sns-twitter" x="48" y="0"/>
	<use xlink:href="#sns-google" x="96" y="0"/>
	<use xlink:href="#sns-vk" x="144" y="0"/>
	<use xlink:href="#sns-qq" x="192" y="0"/>
	<use xlink:href="#sns-wechat" x="240" y="0"/>
	<use xlink:href="#sns-youtube" x="288" y="0"/>
	<use xlink:href="#sns-pinterest" x="336" y="0"/>
	<use xlink:href="#sns-googleplus" x="384" y="0"/>
	<use xlink:href="#sns-instagram" x="432" y="0" stroke="#000"/>
</g>
<!--row 2-->
<g fill="#fff">
	<use xlink:href="#sns-facebook" x="0" y="48"/>
	<use xlink:href="#sns-twitter" x="48" y="48"/>
	<use xlink:href="#sns-google" x="96" y="48"/>
	<use xlink:href="#sns-vk" x="144" y="48"/>
	<use xlink:href="#sns-qq" x="192" y="48"/>
	<use xlink:href="#sns-wechat" x="240" y="48"/>
	<use xlink:href="#sns-youtube" x="288" y="48"/>
	<use xlink:href="#sns-pinterest" x="336" y="48"/>
	<use xlink:href="#sns-googleplus" x="384" y="48"/>
	<use xlink:href="#sns-instagram" x="432" y="48" stroke="#fff"/>
</g>
<!--row 3-->
<g fill="#000">
	<use xlink:href="#sns-line" x="0" y="96"/>
	<use xlink:href="#sns-whatsapp" x="48" y="96"/>
	<use xlink:href="#sns-steam" x="96" y="96"/>
	<use xlink:href="#sns-hangouts" x="144" y="96"/>
	<use xlink:href="#sns-paypal" x="192" y="96"/>
	<use xlink:href="#sns-wordpress" x="240" y="96"/>
	<use xlink:href="#sns-tumblr" x="288" y="96"/>
	<use xlink:href="#sns-blackberry" x="336" y="96"/>
	<use xlink:href="#sns-skype" x="384" y="96"/>
	<use xlink:href="#sns-baidu" x="432" y="96"/>
</g>
<!--row 4-->
<g fill="#fff">
	<use xlink:href="#sns-line" x="0" y="144"/>
	<use xlink:href="#sns-whatsapp" x="48" y="144"/>
	<use xlink:href="#sns-steam" x="96" y="144"/>
	<use xlink:href="#sns-hangouts" x="144" y="144"/>
	<use xlink:href="#sns-paypal" x="192" y="144"/>
	<use xlink:href="#sns-wordpress" x="240" y="144"/>
	<use xlink:href="#sns-tumblr" x="288" y="144"/>
	<use xlink:href="#sns-blackberry" x="336" y="144"/>
	<use xlink:href="#sns-skype" x="384" y="144"/>
	<use xlink:href="#sns-baidu" x="432" y="144"/>
</g>
</svg>