<?xml version="1.0" encoding="utf-8"?><svg width="440" height="398" viewBox="0 0 440 398" xmlns="http://www.w3.org/2000/svg" xmlns:xlink="http://www.w3.org/1999/xlink"><svg width="66" height="66" viewBox="-4 -4 66 66" id="img-feed-gif" x="66" y="332"><title>3A5C4664-3640-4274-B355-31D5DCBCBA3A</title><defs><path d="M28 56c15.464 0 28-12.536 28-28S43.464 0 28 0 0 12.536 0 28s12.536 28 28 28zm0-1.75c14.497 0 26.25-11.753 26.25-26.25S42.497 1.75 28 1.75 1.75 13.503 1.75 28 13.503 54.25 28 54.25z" id="ab"/><filter x="-50%" y="-50%" width="200%" height="200%" filterUnits="objectBoundingBox" id="aa"><feOffset in="SourceAlpha" result="shadowOffsetOuter1"/><feGaussianBlur stdDeviation=".25" in="shadowOffsetOuter1" result="shadowBlurOuter1"/><feColorMatrix values="0 0 0 0 0 0 0 0 0 0 0 0 0 0 0 0 0 0 0.15 0" in="shadowBlurOuter1"/></filter><path d="M25.946 30.444v-1.898h-7.085v2.337h4.45v.322c-.036 2.828-1.969 4.764-4.76 4.764-3.28 0-5.32-2.75-5.32-7.204 0-4.377 1.98-6.984 5.272-6.984 2.243 0 3.925 1.33 4.569 3.64h2.743c-.596-3.718-3.495-6.171-7.323-6.171-4.903 0-7.992 3.667-7.992 9.541 0 5.978 3.101 9.709 8.027 9.709 4.664 0 7.42-3.008 7.42-8.056zm5.284 7.746V19.56h-2.67v18.63h2.671zm5.845 0v-7.798h7.395v-2.44h-7.395v-5.9h8.075V19.56H34.403v18.63h2.672z" id="ad"/><filter x="-50%" y="-50%" width="200%" height="200%" filterUnits="objectBoundingBox" id="ac"><feOffset in="SourceAlpha" result="shadowOffsetOuter1"/><feGaussianBlur stdDeviation=".25" in="shadowOffsetOuter1" result="shadowBlurOuter1"/><feColorMatrix values="0 0 0 0 0 0 0 0 0 0 0 0 0 0 0 0 0 0 0.2 0" in="shadowBlurOuter1"/></filter></defs><g transform="translate(1 1)" fill="none" fill-rule="evenodd"><circle fill-opacity=".04" fill="#000" cx="28" cy="28" r="28"/><use fill="#000" filter="url(#aa)" xlink:href="#ab"/><use fill="#FFF" xlink:href="#ab"/><use fill="#000" filter="url(#ac)" xlink:href="#ad"/><use fill="#FFF" xlink:href="#ad"/></g></svg><svg width="42" height="42" viewBox="-4 -4 42 42" id="img-feed-gif-s" x="210" y="125"><title>BFB3B132-3ABE-41E0-ADFE-5C476885965A</title><defs><path d="M16 32c8.837 0 16-7.163 16-16S24.837 0 16 0 0 7.163 0 16s7.163 16 16 16zm0-1c8.284 0 15-6.716 15-15 0-8.284-6.716-15-15-15C7.716 1 1 7.716 1 16c0 8.284 6.716 15 15 15z" id="bb"/><filter x="-50%" y="-50%" width="200%" height="200%" filterUnits="objectBoundingBox" id="ba"><feOffset in="SourceAlpha" result="shadowOffsetOuter1"/><feGaussianBlur stdDeviation=".25" in="shadowOffsetOuter1" result="shadowBlurOuter1"/><feColorMatrix values="0 0 0 0 0 0 0 0 0 0 0 0 0 0 0 0 0 0 0.15 0" in="shadowBlurOuter1"/></filter><path d="M14.827 17.396v-1.084h-4.05v1.335h2.543v.185c-.02 1.615-1.124 2.722-2.72 2.722-1.874 0-3.04-1.571-3.04-4.117 0-2.5 1.132-3.991 3.013-3.991 1.282 0 2.243.76 2.61 2.08h1.569C14.41 12.402 12.754 11 10.567 11 7.765 11 6 13.095 6 16.452 6 19.868 7.772 22 10.587 22c2.665 0 4.24-1.719 4.24-4.604zm3.019 4.427V11.177h-1.527v10.646h1.527zm3.34 0v-4.456h4.225v-1.394h-4.225V12.6H25.8v-1.424h-6.141v10.646h1.527z" id="bd"/><filter x="-50%" y="-50%" width="200%" height="200%" filterUnits="objectBoundingBox" id="bc"><feOffset in="SourceAlpha" result="shadowOffsetOuter1"/><feGaussianBlur stdDeviation=".25" in="shadowOffsetOuter1" result="shadowBlurOuter1"/><feColorMatrix values="0 0 0 0 0 0 0 0 0 0 0 0 0 0 0 0 0 0 0.2 0" in="shadowBlurOuter1"/></filter></defs><g transform="translate(1 1)" fill="none" fill-rule="evenodd"><circle fill-opacity=".04" fill="#000" cx="16" cy="16" r="16"/><use fill="#000" filter="url(#ba)" xlink:href="#bb"/><use fill="#FFF" xlink:href="#bb"/><use fill="#000" filter="url(#bc)" xlink:href="#bd"/><use fill="#FFF" xlink:href="#bd"/></g></svg><svg width="66" height="66" viewBox="-4 -4 66 66" id="img-feed-play" y="332"><title>E92E1316-C703-4FF5-8DAE-CB810AE782CA</title><defs><path d="M28 56c15.464 0 28-12.536 28-28S43.464 0 28 0 0 12.536 0 28s12.536 28 28 28zm0-1.75c14.497 0 26.25-11.753 26.25-26.25S42.497 1.75 28 1.75 1.75 13.503 1.75 28 13.503 54.25 28 54.25z" id="cb"/><filter x="-50%" y="-50%" width="200%" height="200%" filterUnits="objectBoundingBox" id="ca"><feOffset in="SourceAlpha" result="shadowOffsetOuter1"/><feGaussianBlur stdDeviation=".25" in="shadowOffsetOuter1" result="shadowBlurOuter1"/><feColorMatrix values="0 0 0 0 0 0 0 0 0 0 0 0 0 0 0 0 0 0 0.15 0" in="shadowBlurOuter1"/></filter><path d="M22.75 37.627c0 .257.145.494.37.61a.656.656 0 0 0 .695-.07l16.178-9.724a.692.692 0 0 0 .257-.54.682.682 0 0 0-.257-.54L23.816 17.64a.65.65 0 0 0-.696-.069.683.683 0 0 0-.37.61v19.447z" id="cd"/><filter x="-50%" y="-50%" width="200%" height="200%" filterUnits="objectBoundingBox" id="cc"><feOffset in="SourceAlpha" result="shadowOffsetOuter1"/><feGaussianBlur stdDeviation=".25" in="shadowOffsetOuter1" result="shadowBlurOuter1"/><feColorMatrix values="0 0 0 0 0 0 0 0 0 0 0 0 0 0 0 0 0 0 0.198284647 0" in="shadowBlurOuter1"/></filter></defs><g transform="translate(1 1)" fill="none" fill-rule="evenodd"><circle fill-opacity=".04" fill="#000" cx="28" cy="28" r="28"/><use fill="#000" filter="url(#ca)" xlink:href="#cb"/><use fill="#FFF" xlink:href="#cb"/><use fill="#000" filter="url(#cc)" xlink:href="#cd"/><use fill="#FFF" xlink:href="#cd"/></g></svg><svg width="42" height="42" viewBox="-4 -4 42 42" id="img-feed-play-s" x="228" y="332"><title>010C1C99-2347-4207-BFFA-742079950214</title><defs><path d="M16 32c8.837 0 16-7.163 16-16S24.837 0 16 0 0 7.163 0 16s7.163 16 16 16zm0-1c8.284 0 15-6.716 15-15 0-8.284-6.716-15-15-15C7.716 1 1 7.716 1 16c0 8.284 6.716 15 15 15z" id="db"/><filter x="-50%" y="-50%" width="200%" height="200%" filterUnits="objectBoundingBox" id="da"><feOffset in="SourceAlpha" result="shadowOffsetOuter1"/><feGaussianBlur stdDeviation=".25" in="shadowOffsetOuter1" result="shadowBlurOuter1"/><feColorMatrix values="0 0 0 0 0 0 0 0 0 0 0 0 0 0 0 0 0 0 0.15 0" in="shadowBlurOuter1"/></filter><path d="M13 21.501c0 .147.083.282.212.348a.363.363 0 0 0 .397-.04l9.244-5.556a.396.396 0 0 0 .147-.308.39.39 0 0 0-.147-.309L13.61 10.08a.371.371 0 0 0-.397-.04.39.39 0 0 0-.212.349V21.5z" id="dd"/><filter x="-50%" y="-50%" width="200%" height="200%" filterUnits="objectBoundingBox" id="dc"><feOffset in="SourceAlpha" result="shadowOffsetOuter1"/><feGaussianBlur stdDeviation=".25" in="shadowOffsetOuter1" result="shadowBlurOuter1"/><feColorMatrix values="0 0 0 0 0 0 0 0 0 0 0 0 0 0 0 0 0 0 0.198284647 0" in="shadowBlurOuter1"/></filter></defs><g transform="translate(1 1)" fill="none" fill-rule="evenodd"><circle fill-opacity=".04" fill="#000" cx="16" cy="16" r="16"/><use fill="#000" filter="url(#da)" xlink:href="#db"/><use fill="#FFF" xlink:href="#db"/><use fill="#000" filter="url(#dc)" xlink:href="#dd"/><use fill="#FFF" xlink:href="#dd"/></g></svg><svg width="54" height="54" viewBox="-4 -4 54 54" id="img-group-gif" x="132" y="332"><title>D613D33C-2978-47D6-81AF-61742ED13B4C</title><defs><path d="M22 44C9.85 44 0 34.15 0 22S9.85 0 22 0s22 9.85 22 22-9.85 22-22 22zm0-1.375c11.39 0 20.625-9.234 20.625-20.625 0-11.39-9.234-20.625-20.625-20.625C10.61 1.375 1.375 10.609 1.375 22c0 11.39 9.234 20.625 20.625 20.625z" id="eb"/><filter x="-50%" y="-50%" width="200%" height="200%" filterUnits="objectBoundingBox" id="ea"><feOffset in="SourceAlpha" result="shadowOffsetOuter1"/><feGaussianBlur stdDeviation=".25" in="shadowOffsetOuter1" result="shadowBlurOuter1"/><feColorMatrix values="0 0 0 0 0 0 0 0 0 0 0 0 0 0 0 0 0 0 0.15 0" in="shadowBlurOuter1"/></filter><path d="M20.386 23.92v-1.491H14.82v1.836h3.495v.254c-.028 2.221-1.546 3.743-3.74 3.743-2.576 0-4.179-2.161-4.179-5.66 0-3.44 1.556-5.489 4.142-5.489 1.762 0 3.084 1.045 3.59 2.86h2.155c-.468-2.92-2.746-4.848-5.754-4.848-3.852 0-6.279 2.881-6.279 7.497 0 4.696 2.437 7.628 6.307 7.628 3.665 0 5.83-2.364 5.83-6.33zm4.152 6.087V15.368h-2.1v14.639h2.1zm4.592 0v-6.128h5.81v-1.917h-5.81v-4.636h6.345v-1.958h-8.444v14.639h2.1z" id="ed"/><filter x="-50%" y="-50%" width="200%" height="200%" filterUnits="objectBoundingBox" id="ec"><feOffset in="SourceAlpha" result="shadowOffsetOuter1"/><feGaussianBlur stdDeviation=".25" in="shadowOffsetOuter1" result="shadowBlurOuter1"/><feColorMatrix values="0 0 0 0 0 0 0 0 0 0 0 0 0 0 0 0 0 0 0.2 0" in="shadowBlurOuter1"/></filter></defs><g transform="translate(1 1)" fill="none" fill-rule="evenodd"><circle fill-opacity=".04" fill="#000" cx="22" cy="22" r="22"/><use fill="#000" filter="url(#ea)" xlink:href="#eb"/><use fill="#FFF" xlink:href="#eb"/><use fill="#000" filter="url(#ec)" xlink:href="#ed"/><use fill="#FFF" xlink:href="#ed"/></g></svg><svg width="42" height="42" viewBox="-4 -4 42 42" id="img-group-play" x="186" y="332"><title>C5F53796-F5A5-4BFB-9B8E-79464705575B</title><defs><path d="M16 32C7.163 32 0 24.837 0 16S7.163 0 16 0s16 7.163 16 16-7.163 16-16 16zm0-1c8.284 0 15-6.716 15-15 0-8.284-6.716-15-15-15C7.716 1 1 7.716 1 16c0 8.284 6.716 15 15 15z" id="fb"/><filter x="-50%" y="-50%" width="200%" height="200%" filterUnits="objectBoundingBox" id="fa"><feOffset in="SourceAlpha" result="shadowOffsetOuter1"/><feGaussianBlur stdDeviation=".25" in="shadowOffsetOuter1" result="shadowBlurOuter1"/><feColorMatrix values="0 0 0 0 0 0 0 0 0 0 0 0 0 0 0 0 0 0 0.15 0" in="shadowBlurOuter1"/></filter><path d="M13 21.501c0 .147.083.282.212.348a.363.363 0 0 0 .397-.04l9.244-5.556a.396.396 0 0 0 .147-.308.39.39 0 0 0-.147-.309L13.61 10.08a.371.371 0 0 0-.397-.04.39.39 0 0 0-.212.349V21.5z" id="fd"/><filter x="-50%" y="-50%" width="200%" height="200%" filterUnits="objectBoundingBox" id="fc"><feOffset in="SourceAlpha" result="shadowOffsetOuter1"/><feGaussianBlur stdDeviation=".25" in="shadowOffsetOuter1" result="shadowBlurOuter1"/><feColorMatrix values="0 0 0 0 0 0 0 0 0 0 0 0 0 0 0 0 0 0 0.198284647 0" in="shadowBlurOuter1"/></filter></defs><g transform="translate(1 1)" fill="none" fill-rule="evenodd"><circle fill-opacity=".04" fill="#000" cx="16" cy="16" r="16"/><use fill="#000" filter="url(#fa)" xlink:href="#fb"/><use fill="#FFF" xlink:href="#fb"/><use fill="#000" filter="url(#fc)" xlink:href="#fd"/><use fill="#FFF" xlink:href="#fd"/></g></svg><svg width="102" height="70" viewBox="-4 -4 102 70" id="img-join" x="252"><title>EA88A9BF-5283-4239-BF8D-4A6A85942258</title><defs><rect id="ga" x="34.829" y="30.898" width="22.343" height="24.981" rx="11.171"/><mask id="gc" x="0" y="0" width="22.343" height="24.981" fill="#fff"><use xlink:href="#ga"/></mask><rect id="gb" x="24.971" width="42.057" height="44.704" rx="14"/><mask id="gd" x="0" y="0" width="42.057" height="44.704" fill="#fff"><use xlink:href="#gb"/></mask></defs><g transform="translate(1)" fill="none" fill-rule="evenodd"><path d="M59.338 13h9.355c5.161 0 9.359 4.115 9.359 9.167v12.457c0 2.084-.75 4.097-2.085 5.716l10.92 9.012c2.608 1.71 4.651 5.451 4.651 8.524v14.948H59M32.2 13h-9.355c-5.161 0-9.358 4.115-9.358 9.167v12.457c0 2.084.749 4.097 2.085 5.716l-10.92 9.012C2.042 51.062 0 54.803 0 57.876v14.948h35.156" stroke="#495366" stroke-width="2" fill="#FFF"/><path d="M80.829 71v-9.884c0-3.264-2.25-7.445-4.997-9.29L60.193 39.688c1.894-1.773 3.743-4.91 3.743-7.673V11.06c0-5.38-4.475-9.745-9.995-9.745H38.062c-5.518 0-9.995 4.365-9.995 9.745v20.956c0 2.92 1.344 5.512 3.432 7.297L16.223 51.895c-2.778 1.816-5.052 5.957-5.052 9.221V71H80.83z" fill="#19D3C6"/><path d="M31.543 40.102L16.233 52.58c-2.783 1.8-5.062 5.908-5.062 9.145V71M59.8 40.102l15.31 12.497c2.783 1.804 5.061 5.918 5.061 9.16L80.147 71" stroke="#495366" stroke-width="2"/><use stroke="#495366" mask="url(#gc)" stroke-width="4" fill="#FFF" xlink:href="#ga"/><use stroke="#495366" mask="url(#gd)" stroke-width="4" fill="#FFF" xlink:href="#gb"/><path d="M49.973 11.833c-.924 0-1.673.62-1.673 1.386v2.848c0 .807.749 1.462 1.673 1.462s1.673-.655 1.673-1.462v-2.848c0-.766-.749-1.386-1.673-1.386m-8.093 5.696c.924 0 1.672-.655 1.672-1.462v-2.848c0-.766-.748-1.386-1.672-1.386-.924 0-1.674.62-1.674 1.386v2.848c0 .807.75 1.462 1.674 1.462" fill="#19D3C6"/><path d="M45.914 31.598c-2.762 0-2.69-2.653-2.69-2.653v-5.062h5.379v5.062c0 2.653-2.689 2.653-2.689 2.653m5.087-10.19c-.011-.014-.022-.029-.035-.043l-.04-.038a1.219 1.219 0 0 0-.871-.381H34.891c-.76 0-1.377.657-1.377 1.468 0 .812.617 1.47 1.377 1.47h5.576v5.061c0 5.862 5.447 5.67 5.447 5.67s5.446 0 5.446-5.67v-6.609c0-.358-.138-.681-.359-.928" fill="#495366"/></g></svg><svg width="68" height="68" viewBox="-4 -4 68 68" id="img-no-profile" x="253" y="233"><title>44C5504A-E90B-4C79-A7C4-A2733D32B03F</title><defs><path d="M30 60c16.569 0 30-13.431 30-30C60 13.431 46.569 0 30 0 13.431 0 0 13.431 0 30c0 16.569 13.431 30 30 30z" id="hb"/><path d="M30 60c16.569 0 30-13.431 30-30C60 13.431 46.569 0 30 0 13.431 0 0 13.431 0 30c0 16.569 13.431 30 30 30z" id="ha"/><mask id="hd" x="0" y="0" width="60" height="60" fill="#fff"><use xlink:href="#ha"/></mask></defs><g fill="none" fill-rule="evenodd"><mask id="hc" fill="#fff"><use xlink:href="#hb"/></mask><use fill="#FFF" xlink:href="#hb"/><g mask="url(#hc)"><path d="M35.783 16c-1.224 0-2.217.944-2.217 2.108v4.334c0 1.228.993 2.225 2.217 2.225A2.221 2.221 0 0 0 38 22.442v-4.334C38 16.944 37.007 16 35.783 16m-11.69 8.667a2.22 2.22 0 0 0 2.217-2.225v-4.334c0-1.164-.992-2.108-2.217-2.108-1.224 0-2.217.944-2.217 2.108v4.334c0 1.228.993 2.225 2.217 2.225" fill="#19D3C6"/><path d="M29.912 43.6c-3.945 0-3.843-3.558-3.843-3.558v-6.786h7.683v6.786c0 3.557-3.84 3.557-3.84 3.557m7.265-13.66c-.017-.02-.032-.04-.05-.058-.019-.018-.04-.034-.059-.051a1.794 1.794 0 0 0-1.243-.512H14.17a1.968 1.968 0 0 0 0 3.938h7.963v6.786c0 7.859 7.78 7.6 7.78 7.6s7.777.001 7.777-7.6v-8.86c0-.48-.197-.913-.512-1.244" fill="#495366"/></g><use stroke="#CED4D4" mask="url(#hd)" stroke-width="2" xlink:href="#ha"/></g></svg><svg width="86" height="86" viewBox="-4 -4 86 86" id="img-none-found" x="354"><title>1A500036-9101-42C8-8D76-CA65E6B2ECB3</title><path d="M54.773 10.23c12.303 12.3 12.303 32.244 0 44.547-12.298 12.297-32.247 12.297-44.548 0-12.3-12.303-12.3-32.248 0-44.548 12.305-12.306 32.25-12.304 44.548 0zM55 55l22 22" stroke="#a3a9a9" stroke-width="2" fill="none" fill-rule="evenodd" opacity=".5"/></svg><svg width="125" height="125" viewBox="-4 -4 125 125" id="img-none-found-pc" x="127"><path d="M82.16 15.344c18.453 18.45 18.453 48.367 0 66.82-18.448 18.448-48.372 18.448-66.822 0-18.45-18.453-18.45-48.37 0-66.82 18.457-18.46 48.374-18.457 66.822 0zM82.5 82.5l33 33" fill="none" stroke="#A3A9A9" stroke-width="3" opacity=".5"/></svg><svg width="98" height="99" viewBox="-4 -4 98 99" id="img-none-key" y="233"><title>799EE026-4296-4A33-AE92-54507515D23B</title><g stroke-width="2" stroke="#A3A9A9" fill="none" fill-rule="evenodd" opacity=".5"><path d="M54.259 10.138c-12.183-12.184-31.937-12.184-44.12 0-12.184 12.183-12.184 31.937 0 44.12 9.6 9.601 23.89 11.602 35.484 6.072L74.43 89.136l14.57.002V74.292l-7.22-7.218H70.55l.003-11.23L60.33 45.622c5.53-11.595 3.53-25.883-6.072-35.484z"/><path d="M28.521 18.41a7.148 7.148 0 0 1 0 10.11 7.148 7.148 0 0 1-10.11 0 7.148 7.148 0 0 1 0-10.11 7.148 7.148 0 0 1 10.11 0z"/></g></svg><svg width="87" height="85" viewBox="-4 -4 87 85" id="img-none-noti" x="98" y="233"><g fill="none" fill-rule="evenodd" stroke="#A3A9A9" stroke-width="2" opacity=".5"><path d="M52.887 64.261c-1.055 6.371-6.715 11.234-13.544 11.234-6.773 0-12.4-4.79-13.519-11.087"/><path d="M76.999 64.322l-7.636-11.174V30.799c0-16.363-12.94-29.798-29.716-29.798-16.759 0-29.461 13.435-29.461 29.798v22.349L2.55 64.322H77z"/></g></svg><svg width="41" height="41" viewBox="-4 -4 41 41" id="img-none-noti-header" x="270" y="332"><g fill="none" fill-rule="evenodd" stroke="#A3A9A9"><path d="M21.847 27.636c-.444 2.683-2.827 4.73-5.702 4.73-2.852 0-5.222-2.017-5.693-4.668"/><path d="M32 27.662l-3.215-4.705v-9.41C28.785 6.657 23.335 1 16.272 1 9.216 1 3.868 6.657 3.868 13.547v9.41L.653 27.662H32z"/></g></svg><svg width="127" height="125" viewBox="-4 -4 127 125" id="img-none-noti-pc"><g fill="none" fill-rule="evenodd" stroke="#A3A9A9" stroke-width="3" opacity=".5"><path d="M79.349 98.157c-1.605 9.684-10.208 17.075-20.587 17.075-10.295 0-18.849-7.28-20.55-16.852"/><path d="M115.999 98.25l-11.607-16.986v-33.97c0-24.871-19.67-45.293-45.17-45.293-25.472 0-44.78 20.422-44.78 45.293v33.97L2.837 98.25H116z"/></g></svg><svg width="102" height="102" viewBox="-4 -4 102 102" id="img-none-plug" x="108" y="125"><title>C5B1B8C6-FE0C-4E3C-997C-2E6086550848</title><g transform="translate(1 1)" fill="none" fill-rule="evenodd" opacity=".5"><circle stroke="#C5C5C5" stroke-width="2" cx="46" cy="46" r="46"/><path d="M55.5 25c-1.933 0-3.5 1.306-3.5 2.919v6C52 35.621 53.567 37 55.5 37s3.5-1.379 3.5-3.08v-6.001C59 26.306 57.433 25 55.5 25m-19 12c1.933 0 3.5-1.38 3.5-3.08v-6.001C40 26.306 38.433 25 36.5 25S33 26.306 33 27.919v6C33 35.62 34.567 37 36.5 37m8.905 28.82c-5.882 0-5.73-5.434-5.73-5.434v-10.37H51.13v10.37c0 5.435-5.725 5.435-5.725 5.435m10.832-20.874c-.025-.03-.049-.06-.075-.088-.028-.028-.059-.051-.087-.078-.492-.48-1.138-.781-1.853-.781h-32.29C20.313 44 19 45.347 19 47.008c0 1.662 1.313 3.009 2.932 3.009h11.874v10.369c0 12.007 11.599 11.612 11.599 11.612S57 72 57 60.386V46.847a2.78 2.78 0 0 0-.763-1.9" opacity=".4" fill="#464646"/></g></svg><svg width="100" height="79" viewBox="-4 -4 100 79" id="img-none-post" x="252" y="70"><title>230A5120-EAA3-4B90-A09D-936FD8780867</title><g stroke-width="2" stroke="#A3A9A9" fill="none" fill-rule="evenodd" opacity=".5"><path d="M70.07 63.731V1.044L1 1.08v61.462c0 4.526 3.675 7.46 8.209 7.458h68.103L91 19.85H76.349" stroke-linejoin="round"/><path d="M32.396 19.85h27.208zM11.465 34.478h14.651V19.852h-14.65zM9.373 49.105h50.233m-27.21-29.344h27.208m-27.208 14h27.208m-27.208 0h27.208"/><path d="M11.465 34.478h14.651V19.852h-14.65z"/></g></svg><svg width="82" height="82" viewBox="-4 -4 82 82" id="img-none-recent" x="354" y="86"><title>611BF145-DA6C-4B7D-91D5-5067AB7C2F24</title><g fill="none" fill-rule="evenodd" opacity=".5"><path d="M62.455 11.548c14.06 14.057 14.06 36.851 0 50.91-14.055 14.056-36.854 14.056-50.912 0-14.057-14.059-14.057-36.853 0-50.91 14.063-14.065 36.857-14.063 50.912 0zM37 29.571v25.715" stroke="#A3A9A9" stroke-width="2"/><path d="M39.857 20.997a2.86 2.86 0 0 1-2.86 2.862 2.861 2.861 0 0 1-2.854-2.862 2.855 2.855 0 0 1 2.854-2.854 2.855 2.855 0 0 1 2.86 2.854" fill="#A3A9A9"/></g></svg><svg width="42" height="42" viewBox="-4 -4 42 42" id="img-none-recent-header" x="210" y="167"><g fill="none" fill-rule="evenodd"><path stroke="#A3A9A9" d="M28.313 5.688c6.25 6.248 6.25 16.378 0 22.627-6.246 6.247-16.38 6.247-22.627 0-6.248-6.249-6.248-16.38 0-22.627 6.25-6.251 16.38-6.25 22.627 0z"/><path stroke="#A3A9A9" stroke-width="2" d="M17 13.698v11.429"/><path fill="#A3A9A9" d="M18.27 9.888c0 .7-.568 1.271-1.271 1.271a1.269 1.269 0 1 1 1.271-1.272"/></g></svg><svg width="108" height="108" viewBox="-4 -4 108 108" id="img-up-master" y="125"><title>796959F4-9E7D-4FA7-9A7F-1EF4A264E331</title><defs><circle id="sa" cx="48" cy="48" r="48"/><mask id="sb" x="-2" y="-2" width="100" height="100"><path fill="#fff" d="M-2-2H98V98H-2z"/><use xlink:href="#sa"/></mask></defs><g fill="none" fill-rule="evenodd"><g transform="translate(2 2)"><use fill="#FFD300" xlink:href="#sa"/><use stroke="#FFF" mask="url(#sb)" stroke-width="4" xlink:href="#sa"/></g><path fill="#FFF" d="M50 27l-8 27.283-20-9.95L34 71h32l12-26.667-20 9.95z"/></g></svg><svg width="66" height="80" viewBox="-4 -4 66 80" id="logo-apple-off" x="354" y="248"><title>0EFF9A9D-8C25-4C48-A694-C039B0B11EEA</title><defs><path id="ta" d="M14.936.032H.231v16.034h14.705V.032z"/></defs><g fill="none" fill-rule="evenodd"><path d="M48.252 38.257c-.082-9.107 7.332-13.48 7.657-13.683-4.164-6.188-10.661-7.05-12.962-7.152-5.53-.565-10.793 3.308-13.588 3.308-2.803 0-7.131-3.215-11.706-3.122-6.036.083-11.578 3.557-14.683 9.013C-3.284 37.636 1.363 53.96 7.472 62.89c2.977 4.373 6.524 9.282 11.186 9.106 4.501-.176 6.2-2.946 11.633-2.946 5.424 0 6.958 2.946 11.715 2.872 4.83-.102 7.899-4.474 10.848-8.846 3.415-5.077 4.836-9.987 4.918-10.246-.106-.037-9.429-3.669-9.52-14.572" fill="#363838"/><g transform="translate(28.394)"><mask id="tb" fill="#fff"><use xlink:href="#ta"/></mask><path d="M11.08 11.115C13.62 8.184 15.33 4.1 14.859.032 11.212.166 6.79 2.365 4.18 5.288 1.827 7.898-.236 12.063.324 16.04c4.062.295 8.23-1.984 10.757-4.925" fill="#363838" mask="url(#tb)"/></g></g></svg><svg width="66" height="80" viewBox="-4 -4 66 80" id="logo-apple-on" x="354" y="168"><title>91BBAD4F-6117-441A-A109-87C73DB07D95</title><defs><path id="ua" d="M14.936.032H.231v16.034h14.705V.032z"/></defs><g fill="none" fill-rule="evenodd"><path d="M48.252 38.257c-.082-9.107 7.332-13.48 7.657-13.683-4.164-6.188-10.661-7.05-12.962-7.152-5.53-.565-10.793 3.308-13.588 3.308-2.803 0-7.131-3.215-11.706-3.122-6.036.083-11.578 3.557-14.683 9.013C-3.284 37.636 1.363 53.96 7.472 62.89c2.977 4.373 6.524 9.282 11.186 9.106 4.501-.176 6.2-2.946 11.633-2.946 5.424 0 6.958 2.946 11.715 2.872 4.83-.102 7.899-4.474 10.848-8.846 3.415-5.077 4.836-9.987 4.918-10.246-.106-.037-9.429-3.669-9.52-14.572" fill="#19D3C6"/><g transform="translate(28.394)"><mask id="ub" fill="#fff"><use xlink:href="#ua"/></mask><path d="M11.08 11.115C13.62 8.184 15.33 4.1 14.859.032 11.212.166 6.79 2.365 4.18 5.288 1.827 7.898-.236 12.063.324 16.04c4.062.295 8.23-1.984 10.757-4.925" fill="#19D3C6" mask="url(#ub)"/></g></g></svg><svg width="68" height="74" viewBox="-4 -4 68 74" id="logo-google-off" x="252" y="149"><title>11D69039-9D0E-455F-B82D-5A9D5F746ABF</title><path d="M33.955 32.274L44.41 21.82 6.805.529l-.019.01A4.6 4.6 0 0 0 4.656 0c-.853 0-1.641.245-2.33.646l31.629 31.628zM1.483 1.265A4.63 4.63 0 0 0 0 4.655v56.638c0 1.358.591 2.568 1.517 3.419l31.707-31.706L1.483 1.265zm32.472 32.472L2.368 65.324a4.6 4.6 0 0 0 2.287.625 4.6 4.6 0 0 0 2.144-.547l.022.014 37.63-21.183-10.496-10.496zm22.897-4.859l-.001-.015-11.508-6.515-10.657 10.657 10.7 10.7 11.792-6.638-.001-.02c1.375-.808 2.306-2.286 2.306-3.995 0-1.843-1.08-3.42-2.63-4.174" fill="#363838" fill-rule="evenodd"/></svg><svg width="68" height="74" viewBox="-4 -4 68 74" id="logo-google-on" x="185" y="233"><title>991283F4-9D65-4874-AAFA-DF9F51E814F9</title><path d="M33.955 32.274L44.41 21.82 6.805.529l-.019.01A4.6 4.6 0 0 0 4.656 0c-.853 0-1.641.245-2.33.646l31.629 31.628zM1.483 1.265A4.63 4.63 0 0 0 0 4.655v56.638c0 1.358.591 2.568 1.517 3.419l31.707-31.706L1.483 1.265zm32.472 32.472L2.368 65.324a4.6 4.6 0 0 0 2.287.625 4.6 4.6 0 0 0 2.144-.547l.022.014 37.63-21.183-10.496-10.496zm22.897-4.859l-.001-.015-11.508-6.515-10.657 10.657 10.7 10.7 11.792-6.638-.001-.02c1.375-.808 2.306-2.286 2.306-3.995 0-1.843-1.08-3.42-2.63-4.174" fill="#19D3C6" fill-rule="evenodd"/></svg></svg>