<svg xmlns="http://www.w3.org/2000/svg" xmlns:xlink="http://www.w3.org/1999/xlink" width="77" height="24" viewBox="0 0 77 24"><defs><path id="a" d="M.108.097h7.106v10.055H.108z"/><path id="c" d="M0 23.898h76.926V0H0z"/></defs><g fill="none" fill-rule="evenodd"><path fill="#231F20" d="M40.069 5.508c.29.264.125.556.176.81.049.237-.052.472.079.727.11.218.064.517.088.791l.221-.023c.095-.77.19-1.527.285-2.305h-.85zm-5.037 1.338h3.6l-.232-.523h-3.228L34.47 7.36v4.099c0 .02.014.041.026.057.012.016.032.026.054.043.409-.51.675-1.061.614-1.747-.037-.407-.007-.821-.007-1.208l.18-.192h2.938l.182.183c0 .306-.008.626.002.945.01.302-.043.611.03.9l.641-.411.034.75.629-.941c-.301-.796-.448-1.624-.514-2.47-.002-.024-.053-.046-.086-.073l-.098.252h-.183l-.096-.386-.072.018v.575l-.196.198h-3.516V6.846zm.954-3.425v1.766l.258.037V2.611h1.107V5.2h.258V3.455h1.131v2.163c.465-1.006.818-2.027 1.007-3.171l1.201.19c.03.104.165.323.105.417-.2.314-.165.706-.399 1.03h1.766c.008.242.02.461.024.68.004.228 0 .454 0 .643l-.405.254c.025 1.466-.286 2.838-.8 4.192.404.377.608.998 1.246 1.236l-.616 1.64-1.313-1.403c-.5.333-.7 1.034-1.29 1.352-.296-.297-.292-.775-.65-1.007l-.973.766c-.329-.269-.663-.553-.542-.947.187-.607.064-1.205.127-1.833h-.81c-.037 1.1-.252 2.117-1.079 2.88l-.85-.87v.976h-1.208l-.206-.207V9.253l-.484.5-.563-1.575c.777-.911 1.501-1.866 2.108-2.951l.713.525V3.767c-.538.92-1.263 1.566-1.968 2.284-.264-.44-.644-.796-.763-1.223l2.02-2.36c.358.305.909.416 1.088.953h.76zm26.129 4.162h-3.773c.693.624 1.201 1.345 1.951 1.796.82-.402 1.265-1.13 1.822-1.796zm2.993-2.503h-3.943v1.087h2.85V7.5a10.998 10.998 0 0 1-2.197 2.751c.493.262 1.021.355 1.539.477.595.14 1.184.324 1.81.287.067-.004.14.102.209.157l-.876 1.48c-.693-.23-1.45-.262-2.16-.528-.678-.254-1.369-.462-2.008-.85-1.355.744-2.846 1.092-4.316 1.421l-.831-1.356c.233-.071.43-.174.631-.186.699-.043 1.35-.268 2.008-.473.323-.1.636-.23 1.041-.38-.725-.708-1.395-1.372-1.896-2.23l.685-.486c-.302-.01-.517-.02-.732-.024-.226-.004-.453 0-.703 0V6.2h3.256V5.088h-4.089v-1.2l.17-.17h3.923V2.473h1.658v1.219h3.97V5.08z"/><g transform="translate(69.713 2.381)"><mask id="b" fill="#fff"><use xlink:href="#a"/></mask><path fill="#231F20" d="M1.97 8.636h2.049l.325-.424V3.389H.108V2.03H4.32c.072-.327.027-.643.035-.955.009-.318.002-.636.002-.977h1.494V1.99h1.363v1.385H5.87v.62c0 1.493.001 2.985-.002 4.477 0 .241-.02.467-.114.71-.086.223-.132.504-.318.613-.286.168-.57.372-.952.357-.707-.027-1.417-.007-2.158-.007-.021-.266-.016-.535-.072-.79-.05-.225-.169-.435-.284-.718" mask="url(#b)"/></g><mask id="d" fill="#fff"><use xlink:href="#c"/></mask><path fill="#231F20" d="M48.644 10.847h3.115v-.783h-3.115v.783zm3.175 1.275h-3.127l-.191.523h-1.364V8.694h6.147v3.95c-.213.005-.454.015-.695.018-.25.003-.498 0-.77 0v-.54zm14.843-5.32c.855-1.333 1.633-2.748 2.098-4.339.501-.05.963.132 1.452.302-.102.594-.44 1.105-.542 1.688-.238.168-.132.419-.133.631-.008 2.271-.005 4.542-.005 6.813v.615h-1.509V7.594l-.904 1.265-.457-2.057m-20.505 5.847h-1.32l-.196-.197V8.476l-.638.983c-.081-.833-.405-1.51-.32-2.197.618-1.157 1.096-2.31 1.382-3.545.1-.43.295-.839.44-1.24.46.143.901.282 1.382.433-.17.55-.292 1.081-.503 1.576a2.84 2.84 0 0 0-.23 1.145c.006 2.156.003 4.313.003 6.47v.548z" mask="url(#d)"/><path fill="#231F20" d="M46.73 3.674h2.648l-.334-.864.165-.176 1.4-.198.647 1.262h2.716v1.207h-7.241v-1.23zm.403 4.554v-1.2h6.162c.028.377.005.778.014 1.2h-6.176zm6.161-2.854v1.198h-6.15c-.07-.374.01-.777-.037-1.198h6.187zm17.047 1.854c.118-.52.698-.566 1.033-.918.36.453.755.864 1.045 1.338.276.453.793.767.84 1.324l-1.218.756-1.7-2.5M34.439 21.443L32.91 15.4h.822l.715 3.058c.18.753.34 1.506.447 2.089h.018c.099-.6.286-1.318.492-2.098l.804-3.049h.814l.732 3.067c.17.717.331 1.434.42 2.07h.019c.125-.663.294-1.335.482-2.088l.796-3.049h.795l-1.707 6.043h-.813l-.76-3.146c-.188-.772-.313-1.363-.393-1.973h-.018c-.108.6-.242 1.192-.465 1.973l-.858 3.146h-.813zm9-2.59c.009-.503-.206-1.283-1.09-1.283-.796 0-1.145.735-1.207 1.282h2.297zm-2.306.564c.018 1.067.697 1.506 1.484 1.506.563 0 .902-.098 1.197-.224l.134.565c-.277.126-.75.27-1.439.27-1.331 0-2.127-.88-2.127-2.189 0-1.309.769-2.34 2.029-2.34 1.412 0 1.788 1.247 1.788 2.045 0 .161-.018.287-.027.367h-3.04zm8.276 1.83c-.286.143-.858.286-1.59.286-1.699 0-2.977-1.076-2.977-3.057 0-1.892 1.278-3.174 3.146-3.174.75 0 1.224.161 1.43.269l-.188.636c-.295-.143-.715-.25-1.215-.25-1.412 0-2.35.905-2.35 2.492 0 1.48.848 2.43 2.314 2.43.474 0 .956-.1 1.27-.251l.16.618zm.947-6.17h.787v2.708h.018a1.46 1.46 0 0 1 .562-.555c.233-.135.51-.225.805-.225.58 0 1.51.359 1.51 1.856v2.582h-.786v-2.492c0-.7-.26-1.291-1.001-1.291-.51 0-.912.358-1.055.789a.959.959 0 0 0-.053.376v2.618h-.787v-6.365zm7.24 4.152c-.858-.018-1.833.134-1.833.977 0 .511.34.753.742.753.563 0 .92-.358 1.046-.726a.83.83 0 0 0 .045-.251v-.753zm.116 2.214l-.063-.546h-.027c-.241.34-.706.645-1.322.645-.876 0-1.323-.619-1.323-1.246 0-1.05.93-1.623 2.6-1.614v-.09c0-.358-.098-1.004-.983-1.004-.402 0-.822.126-1.126.323l-.178-.52c.357-.233.876-.386 1.42-.386 1.324 0 1.645.906 1.645 1.776v1.622c0 .377.018.744.072 1.04h-.715zm2.824-5.585v1.246h1.126v.6h-1.126v2.34c0 .539.152.844.59.844.205 0 .357-.027.455-.054l.036.591c-.152.063-.393.108-.697.108-.366 0-.661-.116-.849-.332-.223-.233-.304-.618-.304-1.13v-2.366h-.67v-.601h.67v-1.04l.769-.206zm4.71 2.528c.17.045.384.063.643.063.939 0 1.51-.457 1.51-1.291 0-.798-.562-1.184-1.42-1.184-.34 0-.6.027-.733.063v2.349zm-.778-2.914a8.982 8.982 0 0 1 1.493-.116c.768 0 1.332.179 1.689.502.33.287.527.726.527 1.264 0 .547-.16.977-.464 1.29-.412.44-1.082.664-1.842.664-.232 0-.446-.009-.625-.053v2.42h-.778v-5.97zm6.775 3.757c-.858-.018-1.832.134-1.832.977 0 .511.34.753.741.753.564 0 .921-.358 1.046-.726a.83.83 0 0 0 .045-.251v-.753zm.116 2.214l-.062-.546h-.027c-.242.34-.706.645-1.323.645-.876 0-1.323-.619-1.323-1.246 0-1.05.93-1.623 2.601-1.614v-.09c0-.358-.098-1.004-.983-1.004-.402 0-.822.126-1.126.323l-.18-.52c.358-.233.877-.386 1.422-.386 1.323 0 1.645.906 1.645 1.776v1.622c0 .377.017.744.071 1.04h-.715zm2.127-4.339l.948 2.564c.098.287.205.628.277.888h.018c.08-.26.17-.592.277-.906l.858-2.546h.83l-1.179 3.093c-.563 1.489-.947 2.25-1.484 2.717-.384.34-.768.475-.965.51l-.196-.662c.196-.063.455-.189.688-.386.214-.17.482-.475.661-.879a.568.568 0 0 0 .063-.188.693.693 0 0 0-.054-.206l-1.6-3.999h.858z" mask="url(#d)"/><path fill="#45B549" d="M24.564 4.784l-1.083.484c-4.144 1.844-8.29 3.685-12.43 5.536-.545.243-1.031.184-1.504-.152l-2.71-1.93c-.244-.174-.436-.192-.61-.053-.189.152-.231.386-.11.65l1.567 3.387.899 1.948c.244.53.766.734 1.273.452.882-.49 1.75-1.006 2.623-1.514 4.293-2.497 8.585-4.996 12.877-7.494l.13-.07c.11.183.23.363.332.552.495.906.86 1.862 1.047 2.88.17.919.213 1.843.119 2.775-.252 2.51-1.389 4.58-3.148 6.33-1.568 1.557-3.454 2.59-5.543 3.266a15.05 15.05 0 0 1-2.705.597c-.989.129-1.982.164-2.976.115a15.514 15.514 0 0 1-3.493-.596 1.505 1.505 0 0 0-1.248.16c-.972.582-1.952 1.155-2.928 1.732-.137.081-.335.08-.453-.012a.427.427 0 0 1-.155-.473c.132-.512.268-1.022.404-1.533.095-.36.201-.717.285-1.08.074-.322 0-.608-.262-.829-.506-.429-1.035-.834-1.514-1.292C1.686 17.128.646 15.327.194 13.204a9.292 9.292 0 0 1-.144-2.866c.249-2.512 1.394-4.58 3.14-6.335C4.897 2.287 6.972 1.2 9.281.543 10.38.23 11.501.035 12.643.012c.78-.016 1.566-.026 2.343.04 2.408.203 4.654.927 6.703 2.23a12.87 12.87 0 0 1 2.81 2.415c.02.023.036.048.065.087" mask="url(#d)"/></g></svg>